<svg width="929" height="685" viewBox="0 0 929 685" fill="none" xmlns="http://www.w3.org/2000/svg">
<g clip-path="url(#clip0_15_2)">
<path d="M434.56 492.902C434.01 493.171 433.473 493.427 432.923 493.71C425.572 497.352 418.526 501.584 411.855 506.366C411.331 506.725 410.807 507.11 410.296 507.481C394.36 519.156 380.723 533.695 370.077 550.361C367.674 554.106 365.449 557.965 363.378 561.902C361.793 564.954 360.302 568.057 358.904 571.212C353.65 583.175 348.971 596.832 338.629 604.166C337.519 604.967 336.347 605.679 335.126 606.295C335.023 606.346 334.908 606.398 334.806 606.449C334.747 599.734 333.727 593.062 331.776 586.637C331.456 585.56 331.099 584.483 330.715 583.432C330.536 582.932 330.357 582.432 330.153 581.944C328.882 578.57 327.33 575.31 325.512 572.199C320.335 563.04 312.803 555.441 303.703 550.195C301.079 556.719 297.739 562.929 293.744 568.711C296.761 562.351 300.034 556.144 303.626 550.143C303.712 549.978 303.81 549.819 303.92 549.669C304.457 548.746 305.02 547.835 305.582 546.925C314.255 532.622 325.262 519.883 338.143 509.238C347.061 502.059 357.053 496.338 367.75 492.286C388.972 484.246 412.533 483.092 433.013 492.196C433.537 492.427 434.048 492.658 434.56 492.902Z" fill="#F0F0F0"/>
<path d="M434.342 493.594C433.869 493.633 433.396 493.671 432.923 493.709C422.961 494.545 413.121 496.485 403.584 499.493C403.111 499.647 402.625 499.8 402.139 499.954C388.934 504.25 376.472 510.57 365.194 518.689C365.079 518.766 364.951 518.855 364.836 518.945C362.215 520.856 359.662 522.865 357.178 524.972C352.409 528.831 348.28 533.423 344.944 538.577C342.315 542.895 340.726 547.769 340.304 552.811C340.252 553.311 340.214 553.824 340.176 554.324C340.163 554.734 340.137 555.131 340.124 555.542C340.01 559.389 340.188 563.3 339.817 567.134C339.669 568.881 339.361 570.611 338.897 572.301C337.975 575.57 336.212 578.537 333.784 580.906C332.84 581.84 331.813 582.686 330.716 583.432C330.536 582.932 330.357 582.432 330.153 581.944C331.238 581.188 332.249 580.329 333.17 579.38C334.881 577.621 336.194 575.513 337.018 573.199C337.64 571.393 338.051 569.522 338.245 567.621C338.68 563.851 338.501 559.979 338.59 556.221C338.616 555.247 338.667 554.285 338.744 553.336C339.059 548.478 340.406 543.743 342.694 539.449C345.757 534.142 349.7 529.398 354.353 525.421C357.268 522.805 360.315 520.339 363.481 518.035C363.89 517.727 364.299 517.419 364.721 517.137C384.861 502.864 408.439 494.253 433.013 492.196C433.485 492.145 433.946 492.119 434.419 492.081C435.391 492.004 435.314 493.53 434.342 493.594Z" fill="white"/>
<path d="M363.846 518.651C361.276 514.565 360.237 509.696 360.916 504.913C361.595 500.13 363.946 495.745 367.551 492.54C368.282 491.894 369.317 493.004 368.585 493.651C365.223 496.629 363.033 500.714 362.41 505.169C361.787 509.624 362.772 514.156 365.188 517.947C365.712 518.771 364.367 519.471 363.846 518.651Z" fill="white"/>
<path d="M339.845 552.706C349.428 554.972 359.511 553.531 368.082 548.672C368.931 548.189 369.632 549.536 368.784 550.018C359.855 555.058 349.36 556.536 339.392 554.156C338.442 553.928 338.9 552.48 339.845 552.706Z" fill="white"/>
<path d="M403.402 499.053C404.068 500.842 405.166 502.437 406.599 503.694C408.031 504.952 409.752 505.833 411.608 506.259C412.56 506.474 412.102 507.923 411.156 507.709C409.108 507.229 407.208 506.253 405.622 504.867C404.037 503.481 402.813 501.727 402.06 499.757C401.973 499.578 401.958 499.372 402.017 499.181C402.077 498.991 402.206 498.83 402.38 498.732C402.558 498.64 402.765 498.622 402.956 498.682C403.148 498.742 403.308 498.875 403.402 499.053Z" fill="white"/>
<path d="M463.362 605.987C462.774 605.872 462.186 605.757 461.598 605.667L461.585 605.654H461.56C453.51 604.106 445.348 603.227 437.155 603.025H437.142C436.503 603 435.876 602.974 435.25 602.974H435.237C415.506 602.667 395.891 606.041 377.39 612.925C377.364 612.937 377.351 612.937 377.326 612.95C369.959 615.691 362.813 618.996 355.951 622.837C348.626 626.927 341.083 631.736 333.259 634.531C331.692 635.107 330.091 635.587 328.465 635.968C328.849 635.147 329.219 634.313 329.565 633.48C332.115 627.363 333.756 620.904 334.435 614.31C334.5 613.758 334.551 613.207 334.589 612.643C334.755 610.591 334.832 608.514 334.806 606.449C334.747 599.734 333.727 593.062 331.776 586.638C331.457 585.561 331.099 584.483 330.716 583.432C330.536 582.932 330.357 582.432 330.153 581.944C328.882 578.571 327.33 575.311 325.512 572.199C326.676 571.725 327.852 571.263 329.028 570.827C332.071 569.673 335.151 568.609 338.245 567.621H338.258C338.769 567.455 339.294 567.288 339.817 567.134C347.517 564.755 355.397 563.005 363.378 561.902C367.75 561.309 372.149 560.941 376.559 560.8C387.956 560.456 399.337 561.915 410.283 565.121C410.308 565.134 410.334 565.134 410.359 565.146C432.143 571.532 451.639 584.843 462.543 604.487C462.825 604.987 463.093 605.474 463.362 605.987Z" fill="#F0F0F0"/>
<path d="M462.774 606.41C462.377 606.154 461.994 605.91 461.598 605.667L461.585 605.654C453.125 600.301 444.1 595.906 434.675 592.549C434.201 592.369 433.716 592.203 433.243 592.049C420.107 587.492 406.345 585.009 392.449 584.688C392.296 584.676 392.155 584.676 392.014 584.676C388.78 584.611 385.55 584.676 382.324 584.868C376.204 585.068 370.155 586.241 364.401 588.343C359.71 590.202 355.516 593.135 352.154 596.909C351.796 597.281 351.464 597.652 351.144 598.037C350.876 598.358 350.62 598.665 350.364 598.986C346.874 603.333 343.806 608.193 339.319 611.617C339.051 611.822 338.782 612.014 338.514 612.181C337.249 613.06 335.879 613.775 334.435 614.309C334.5 613.758 334.551 613.207 334.589 612.643C335.531 612.251 336.434 611.77 337.286 611.206C337.747 610.899 338.194 610.578 338.629 610.232C342.681 607.077 345.57 602.602 348.728 598.589C349.304 597.858 349.878 597.165 350.492 596.486C353.669 592.74 357.621 589.734 362.074 587.676C367.701 585.287 373.694 583.882 379.793 583.522C383.687 583.19 387.595 583.057 391.503 583.124C392.014 583.124 392.526 583.137 393.037 583.163C407.139 583.595 421.09 586.194 434.406 590.869C444.272 594.319 453.712 598.888 462.543 604.487C462.953 604.731 463.349 604.987 463.746 605.244C464.563 605.782 463.592 606.936 462.774 606.41Z" fill="white"/>
<path d="M391.444 583.847C391.844 579.032 393.938 574.517 397.35 571.108C400.763 567.699 405.273 565.618 410.075 565.236C411.046 565.162 411.206 566.673 410.233 566.747C405.762 567.095 401.561 569.034 398.389 572.215C395.218 575.396 393.284 579.609 392.938 584.095C392.861 585.069 391.368 584.816 391.444 583.847Z" fill="white"/>
<path d="M351.839 596.543C358.131 604.139 367.046 609.078 376.807 610.375C377.774 610.502 377.525 612.001 376.559 611.874C366.405 610.506 357.138 605.347 350.608 597.427C349.986 596.672 351.221 595.792 351.839 596.543Z" fill="white"/>
<path d="M434.79 592.087C434.248 593.917 434.168 595.854 434.557 597.723C434.946 599.592 435.791 601.336 437.018 602.796C437.649 603.543 436.413 604.423 435.786 603.681C434.439 602.061 433.507 600.134 433.073 598.07C432.639 596.006 432.716 593.866 433.296 591.839C433.335 591.643 433.446 591.469 433.608 591.353C433.77 591.237 433.97 591.187 434.167 591.213C434.365 591.247 434.541 591.358 434.658 591.521C434.774 591.685 434.822 591.888 434.79 592.087Z" fill="white"/>
<path d="M59.4479 308.026C39.685 279.823 32.7767 240.611 49.4215 210.451C63.4936 245.18 89.3591 273.798 122.442 291.24C135.224 297.92 150.135 304.015 155.803 317.308C159.33 325.579 158.385 335.22 155.182 343.623C151.979 352.026 146.7 359.443 141.478 366.756L141.158 368.979C109.742 355 79.2109 336.229 59.4479 308.026Z" fill="#F0F0F0"/>
<path d="M50.0937 210.713C50.3137 239.246 59.4911 266.984 76.3223 289.987C79.8581 295.004 84.1601 299.43 89.0699 303.103C93.968 306.525 99.6906 308.57 105.643 309.024C111.184 309.56 116.915 309.464 122.23 311.341C124.936 312.342 127.401 313.906 129.463 315.93C131.525 317.954 133.137 320.392 134.193 323.085C136.999 329.726 137.259 336.982 137.267 344.086C137.277 351.974 137.162 360.168 140.694 367.425C141.122 368.304 139.737 368.919 139.309 368.041C133.164 355.415 137.708 340.937 134.184 327.736C132.54 321.576 129.035 315.876 123.008 313.275C117.737 311.002 111.828 311.096 106.212 310.602C100.399 310.245 94.7616 308.464 89.7923 305.418C84.7119 302.007 80.247 297.755 76.589 292.842C68.1778 281.913 61.5319 269.726 56.895 256.727C51.5208 241.92 48.7114 226.301 48.5882 210.544C48.581 209.569 50.0866 209.744 50.0937 210.713Z" fill="white"/>
<path d="M70.4681 282.9C66.237 285.209 61.3256 285.933 56.6109 284.945C51.8963 283.957 47.6854 281.32 44.7302 277.505C44.1349 276.731 45.3061 275.766 45.9021 276.541C48.6474 280.099 52.5702 282.555 56.9623 283.466C61.3545 284.378 65.9268 283.684 69.8539 281.511C70.7079 281.04 71.3172 282.431 70.4681 282.9Z" fill="white"/>
<path d="M102.798 309.124C105.671 299.678 104.889 289.493 100.608 280.599C100.183 279.718 101.568 279.103 101.993 279.983C106.43 289.246 107.222 299.847 104.211 309.671C103.923 310.607 102.511 310.055 102.798 309.124Z" fill="white"/>
<path d="M53.5256 242.04C55.3482 241.489 57.0059 240.492 58.3497 239.14C59.6935 237.788 60.6814 236.121 61.2246 234.291C61.5003 233.352 62.9118 233.905 62.6379 234.838C62.0284 236.857 60.9352 238.696 59.4538 240.193C57.9724 241.691 56.1479 242.802 54.1397 243.429C53.9554 243.504 53.7495 243.506 53.5639 243.434C53.3782 243.362 53.2268 243.222 53.1404 243.042C53.06 242.858 53.0553 242.65 53.1274 242.462C53.1996 242.274 53.3427 242.123 53.5256 242.04Z" fill="white"/>
<path d="M163.79 188.933C163.634 189.524 163.479 190.116 163.331 190.717C161.281 198.679 159.879 206.795 159.14 214.985C159.073 215.617 159.014 216.259 158.965 216.892C157.393 236.642 159.49 256.514 165.149 275.496C167.408 283.047 170.237 290.415 173.61 297.536C178.27 307.37 184.102 317.661 185.218 328.156C185.346 329.25 185.407 330.35 185.4 331.451L143.886 369.198C143.749 369.236 143.619 369.284 143.482 369.323L141.893 370.906C141.693 370.551 141.494 370.179 141.294 369.824C141.178 369.618 141.07 369.404 140.954 369.199C140.879 369.059 140.804 368.919 140.729 368.797C140.704 368.751 140.679 368.704 140.663 368.667C140.587 368.545 140.53 368.424 140.463 368.312C139.343 366.233 138.236 364.142 137.141 362.039C137.132 362.029 137.132 362.029 137.133 362.012C128.831 345.97 121.791 329.093 117.529 311.68C117.401 311.156 117.264 310.623 117.155 310.082C115.277 302.223 114.043 294.222 113.465 286.161C113.163 281.746 113.083 277.318 113.227 272.895C113.621 261.467 115.804 250.173 119.697 239.425C127.46 218.001 141.968 199.307 162.234 189.655C162.753 189.409 163.262 189.17 163.79 188.933Z" fill="#F0F0F0"/>
<path d="M164.174 189.546C147.223 212.461 137.901 240.15 137.533 268.682C137.345 274.822 138.123 280.954 139.839 286.852C141.695 292.543 145.037 297.631 149.517 301.589C153.62 305.363 158.253 308.747 161.37 313.455C162.93 315.889 163.959 318.627 164.391 321.488C164.822 324.349 164.645 327.269 163.873 330.057C162.127 337.054 157.979 343.004 153.722 348.682C148.994 354.986 143.984 361.458 142.449 369.386C142.263 370.347 140.788 370.001 140.973 369.042C143.645 355.249 155.963 346.434 161.074 333.765C163.458 327.854 164.081 321.186 160.83 315.47C157.986 310.471 153.212 306.978 149.024 303.192C144.597 299.396 141.165 294.57 139.026 289.137C137.016 283.346 136.004 277.254 136.032 271.122C135.876 257.317 137.885 243.573 141.985 230.393C146.582 215.325 153.714 201.157 163.073 188.502C163.653 187.719 164.75 188.768 164.174 189.546Z" fill="white"/>
<path d="M137.112 259.488C132.348 258.776 127.992 256.389 124.821 252.752C121.65 249.116 119.87 244.467 119.801 239.636C119.8 239.439 119.875 239.25 120.011 239.107C120.146 238.965 120.332 238.881 120.528 238.873C120.724 238.865 120.916 238.933 121.063 239.064C121.209 239.196 121.3 239.379 121.315 239.575C121.371 244.074 123.029 248.404 125.989 251.784C128.949 255.164 133.016 257.371 137.456 258.008C138.42 258.147 138.072 259.626 137.112 259.488Z" fill="white"/>
<path d="M147.185 299.95C155.149 294.143 160.638 285.539 162.559 275.852C162.748 274.892 164.223 275.238 164.034 276.197C162.017 286.273 156.286 295.215 147.985 301.24C147.194 301.814 146.398 300.521 147.185 299.95Z" fill="white"/>
<path d="M148.11 216.632C149.896 217.292 151.818 217.498 153.703 217.229C155.588 216.961 157.377 216.227 158.909 215.094C159.693 214.511 160.488 215.804 159.709 216.384C158.011 217.628 156.034 218.436 153.952 218.737C151.871 219.038 149.747 218.823 147.767 218.111C147.575 218.06 147.409 217.937 147.304 217.768C147.199 217.598 147.162 217.395 147.201 217.199C147.248 217.004 147.369 216.834 147.539 216.728C147.71 216.622 147.915 216.587 148.11 216.632Z" fill="white"/>
<path d="M338.629 604.166C338.258 596.204 336.623 588.351 333.784 580.906C333.592 580.393 333.387 579.893 333.17 579.38C331.981 576.439 330.597 573.582 329.028 570.827C323.497 560.89 315.398 552.633 305.582 546.925C305.391 546.822 305.211 546.72 305.032 546.617C308.053 538.003 309.067 528.809 307.999 519.74C305.723 501.57 295.598 485.4 283.376 472.205C260.71 447.714 228.84 433.083 206.852 408.129C206.57 407.809 206.276 407.475 205.995 407.142C205.701 406.808 205.42 406.462 205.126 406.116C202.212 402.665 199.53 399.024 197.098 395.216C192.947 388.671 189.498 381.703 186.806 374.43C185.873 371.904 185.017 369.327 184.263 366.737C183.508 364.198 182.844 361.633 182.268 359.043C181.706 356.491 181.224 353.926 180.824 351.349C180.427 348.797 180.116 346.233 179.89 343.655C179.66 341.091 179.511 338.526 179.443 335.962C179.106 323.421 180.746 310.905 184.301 298.878C184.416 298.454 184.543 298.044 184.684 297.621C184.812 297.198 184.94 296.775 185.08 296.351C185.196 295.98 185.311 295.62 185.439 295.249C191.357 277.502 201.904 262.563 214.956 249.355C223.113 241.097 231.921 233.468 240.384 225.505C240.69 225.222 240.998 224.928 241.305 224.633C241.624 224.338 241.956 224.03 242.276 223.722C247.637 218.687 252.716 213.357 257.489 207.758C260.25 204.479 262.824 201.045 265.198 197.474C266.873 194.986 268.432 192.409 269.864 189.78C271.245 187.267 272.502 184.702 273.635 182.086C274.721 179.573 275.693 176.995 276.524 174.392C277.334 171.867 278.004 169.298 278.531 166.698C279.056 164.159 279.427 161.589 279.643 159.005C279.654 158.981 279.659 158.954 279.657 158.928C280.832 145.732 276.884 132.59 268.637 122.241C268.33 121.844 268.01 121.459 267.678 121.074C267.358 120.677 267.026 120.292 266.68 119.92C264.983 117.992 263.146 116.191 261.183 114.535C240.205 96.7108 212.732 93.6974 187.305 85.7215C186.896 85.5933 186.5 85.465 186.09 85.3368C185.669 85.1958 185.247 85.0675 184.825 84.9265C178.274 82.8363 171.914 80.185 165.815 77.0019C165.738 76.9634 165.675 76.925 165.598 76.8865C162.149 75.0387 158.857 72.9116 155.754 70.5263C152.751 68.2278 149.968 65.6519 147.444 62.8325C146.793 62.1145 146.166 61.3835 145.565 60.6398C144.147 58.9087 141.794 60.9989 142.549 62.8325C142.621 63.0275 142.725 63.2094 142.855 63.3711C144.935 65.9329 147.213 68.3254 149.669 70.5263C152.883 73.4145 156.363 75.9907 160.062 78.2201C167.266 82.4611 174.937 85.8477 182.92 88.3117C183.342 88.4528 183.764 88.581 184.186 88.7221C184.595 88.8503 185.004 88.9785 185.426 89.1068C200.83 93.9154 217.143 96.9801 231.742 102.443C242.787 106.572 253.91 112.291 262.283 120.767C262.628 121.126 262.973 121.485 263.306 121.844C263.651 122.203 263.983 122.575 264.316 122.947C266.343 125.245 268.149 127.731 269.71 130.371C274.673 139.041 276.776 149.063 275.719 159.005C275.494 161.591 275.11 164.16 274.568 166.698C274.012 169.303 273.304 171.872 272.446 174.392C271.679 176.713 270.784 178.983 269.8 181.214C269.672 181.509 269.531 181.804 269.404 182.086C268.189 184.74 266.859 187.305 265.415 189.78C263.881 192.434 262.232 194.986 260.468 197.474C254.164 206.081 247.054 214.064 239.234 221.311C238.914 221.619 238.594 221.927 238.275 222.222C237.968 222.517 237.661 222.799 237.367 223.094C223.471 236.225 208.564 248.573 197.276 263.935C190.138 273.719 184.673 284.626 181.105 296.21C180.977 296.634 180.836 297.057 180.721 297.493C180.581 297.916 180.453 298.339 180.337 298.775C176.888 310.857 175.306 323.398 175.646 335.962C175.71 338.526 175.851 341.091 176.081 343.655C176.298 346.233 176.596 348.797 176.975 351.349C177.154 352.619 177.359 353.875 177.589 355.132C177.819 356.44 178.075 357.748 178.369 359.043C178.906 361.633 179.545 364.198 180.261 366.737C180.99 369.327 181.821 371.891 182.728 374.43C185.854 383.246 190.062 391.638 195.257 399.41C197.2 402.295 199.271 405.052 201.47 407.706C201.764 408.052 202.058 408.411 202.352 408.757C202.633 409.104 202.927 409.437 203.221 409.77C211.94 419.849 222.333 428.415 233.02 436.429C261.196 457.549 296.736 479.258 303.716 516.945C305.365 526.28 304.617 535.883 301.542 544.848C297.468 542.954 293.18 541.563 288.771 540.706C275.109 538.28 261.032 540.264 248.566 546.373C248.182 546.566 247.799 546.758 247.415 546.951C247.019 547.169 246.622 547.374 246.239 547.592C238.44 551.694 231.933 557.892 227.446 565.492C226.083 567.933 224.982 570.512 224.161 573.186C223.401 575.693 222.896 578.271 222.652 580.88C222.538 582.073 222.473 583.304 222.461 584.547C222.446 585.892 222.515 587.237 222.666 588.574C222.954 591.218 223.612 593.808 224.621 596.268C225.658 598.843 227.187 601.191 229.121 603.179C229.39 603.448 229.658 603.718 229.939 603.961C232.685 606.329 235.972 607.979 239.507 608.765C243.043 609.55 246.717 609.446 250.202 608.462C252.137 607.961 254.024 607.287 255.839 606.449C256.427 606.193 257.003 605.91 257.565 605.603C258.128 605.321 258.69 605.013 259.253 604.692C264.197 601.725 268.739 598.131 272.766 593.998C279.523 587.217 285.73 579.906 291.328 572.135C292.146 571.006 292.951 569.865 293.744 568.711C297.739 562.929 301.079 556.719 303.702 550.195C312.803 555.441 320.335 563.04 325.512 572.199C327.33 575.31 328.882 578.571 330.153 581.944C330.357 582.432 330.536 582.932 330.715 583.432C331.099 584.483 331.456 585.56 331.776 586.638C333.727 593.062 334.747 599.734 334.806 606.449C334.832 608.514 334.755 610.591 334.589 612.643C334.551 613.207 334.499 613.758 334.435 614.31C333.756 620.904 332.115 627.363 329.565 633.48C329.219 634.313 328.849 635.147 328.465 635.967C321.664 650.231 310.95 662.254 297.579 670.628C290.697 675.015 283.247 678.432 275.437 680.784C273.085 681.502 274.082 685.22 276.46 684.502C301.274 676.988 323.39 658.523 333.259 634.531C336.115 627.616 337.875 620.296 338.475 612.835C338.488 612.617 338.514 612.399 338.514 612.181C338.564 611.527 338.603 610.886 338.629 610.232C338.718 608.219 338.706 606.193 338.629 604.166ZM288.925 568.929C283.455 576.619 277.38 583.857 270.759 590.574C267.748 593.689 264.472 596.534 260.966 599.076C260.442 599.448 259.905 599.807 259.368 600.166C258.831 600.512 258.281 600.845 257.732 601.166C254.684 603.012 251.347 604.33 247.863 605.064C243.381 605.978 238.721 605.153 234.823 602.756C232.282 601.169 230.212 598.929 228.827 596.268C228.699 596.048 228.584 595.821 228.482 595.588C227.456 593.37 226.787 591.002 226.501 588.574C226.179 586.019 226.183 583.434 226.513 580.88C226.774 578.733 227.224 576.613 227.856 574.545C227.996 574.084 228.15 573.635 228.303 573.186C229.258 570.477 230.538 567.893 232.112 565.492C236.326 559.233 241.995 554.097 248.63 550.528C249.013 550.31 249.396 550.105 249.793 549.9C250.164 549.695 250.534 549.502 250.918 549.323C253.738 547.921 256.672 546.763 259.688 545.86C273.08 541.788 287.487 542.699 300.264 548.425C297.35 555.706 293.541 562.594 288.925 568.929Z" fill="#E4E4E4"/>
<path d="M134.891 116.689C166.662 116.689 192.419 90.8543 192.419 58.9856C192.419 27.1169 166.662 1.2823 134.891 1.2823C103.119 1.2823 77.3629 27.1169 77.3629 58.9856C77.3629 90.8543 103.119 116.689 134.891 116.689Z" fill="white"/>
<path d="M134.891 -2.08748e-06C124.598 -0.00447689 114.484 2.701 105.56 7.84598C96.6362 12.991 89.215 20.3952 84.0381 29.3187C78.8613 38.2422 76.1101 48.3723 76.0597 58.6966C76.0093 69.0208 78.6613 79.1775 83.7507 88.1514C88.8401 97.1254 96.1887 104.602 105.062 109.835C113.935 115.067 124.022 117.872 134.314 117.969C144.607 118.065 154.744 115.451 163.714 110.386C172.683 105.321 180.17 97.9835 185.426 89.1067C186.09 88.004 186.717 86.8755 187.305 85.7215C191.866 76.7295 194.05 66.7144 193.65 56.6337C193.25 46.553 190.279 36.7437 185.021 28.1437C179.762 19.5436 172.392 12.4403 163.616 7.51296C154.839 2.58557 144.949 -0.001184 134.891 -2.08748e-06ZM134.891 115.407C122.606 115.416 110.655 111.395 100.862 103.956C91.0682 96.517 83.9695 86.0689 80.6486 74.2054C77.3277 62.342 77.9669 49.7145 82.4686 38.2495C86.9703 26.7844 95.0875 17.1111 105.582 10.7054C116.076 4.29957 128.371 1.51295 140.592 2.7706C152.813 4.02825 164.288 9.26112 173.266 17.6709C182.245 26.0807 188.235 37.2058 190.322 49.3489C192.409 61.492 190.478 73.9866 184.825 84.9265C184.237 86.0805 183.598 87.2089 182.92 88.3117C177.903 96.581 170.851 103.417 162.439 108.162C154.028 112.907 144.541 115.402 134.891 115.407Z" fill="#E4E4E4"/>
<path d="M106.766 47.445L163.015 47.445C165.134 47.445 166.851 45.7226 166.851 43.5981C166.851 41.4735 165.134 39.7512 163.015 39.7512L106.766 39.7512C104.648 39.7512 102.931 41.4735 102.931 43.5981C102.931 45.7226 104.648 47.445 106.766 47.445Z" fill="#E4E4E4"/>
<path d="M106.766 62.8325L163.015 62.8325C165.134 62.8325 166.851 61.1102 166.851 58.9856C166.851 56.861 165.134 55.1387 163.015 55.1387L106.766 55.1387C104.648 55.1387 102.931 56.861 102.931 58.9856C102.931 61.1102 104.648 62.8325 106.766 62.8325Z" fill="#E4E4E4"/>
<path d="M106.766 78.22L163.015 78.22C165.134 78.22 166.851 76.4977 166.851 74.3732C166.851 72.2486 165.134 70.5263 163.015 70.5263H106.766C104.648 70.5263 102.931 72.2486 102.931 74.3732C102.931 76.4977 104.648 78.22 106.766 78.22Z" fill="#E4E4E4"/>
<path d="M180.913 412.899C212.685 412.899 238.441 387.065 238.441 355.196C238.441 323.327 212.685 297.493 180.913 297.493C149.141 297.493 123.385 323.327 123.385 355.196C123.385 387.065 149.141 412.899 180.913 412.899Z" fill="white"/>
<path d="M185.08 296.351C183.764 296.262 182.447 296.21 181.105 296.21H180.913C172.226 296.21 163.647 298.139 155.792 301.861C147.938 305.582 141.002 311.003 135.485 317.733C129.968 324.463 126.006 332.336 123.884 340.785C121.761 349.235 121.532 358.05 123.211 366.599C124.891 375.148 128.437 383.218 133.596 390.228C138.756 397.238 145.399 403.015 153.049 407.143C160.699 411.27 169.166 413.647 177.841 414.101C186.516 414.556 195.184 413.077 203.221 409.77C204.448 409.257 205.663 408.706 206.852 408.129C218.451 402.411 227.849 393.018 233.593 381.405C239.336 369.791 241.106 356.603 238.628 343.88C236.15 331.157 229.562 319.606 219.883 311.015C210.203 302.424 197.972 297.27 185.08 296.351ZM180.913 411.617C166.044 411.616 151.781 405.711 141.241 395.192C130.701 384.674 124.741 370.397 124.665 355.483C124.589 340.569 130.402 326.232 140.835 315.606C151.267 304.979 165.47 298.928 180.337 298.775H180.913C182.051 298.775 183.176 298.813 184.301 298.877C196.748 299.63 208.594 304.51 217.975 312.752C227.356 320.993 233.74 332.128 236.125 344.406C238.509 356.683 236.758 369.408 231.146 380.578C225.535 391.749 216.382 400.732 205.126 406.116C203.924 406.693 202.709 407.219 201.47 407.706C194.924 410.297 187.95 411.624 180.913 411.617Z" fill="#E4E4E4"/>
<path d="M152.788 343.655H209.038C211.156 343.655 212.873 341.933 212.873 339.808C212.873 337.684 211.156 335.961 209.038 335.961H152.788C150.67 335.961 148.953 337.684 148.953 339.808C148.953 341.933 150.67 343.655 152.788 343.655Z" fill="#E4E4E4"/>
<path d="M152.788 359.043H209.038C211.156 359.043 212.873 357.321 212.873 355.196C212.873 353.071 211.156 351.349 209.038 351.349H152.788C150.67 351.349 148.953 353.071 148.953 355.196C148.953 357.321 150.67 359.043 152.788 359.043Z" fill="#E4E4E4"/>
<path d="M152.788 374.43H209.038C211.156 374.43 212.873 372.708 212.873 370.583C212.873 368.459 211.156 366.737 209.038 366.737H152.788C150.67 366.737 148.953 368.459 148.953 370.583C148.953 372.708 150.67 374.43 152.788 374.43Z" fill="#E4E4E4"/>
<path d="M203.924 642.43C235.696 642.43 261.452 616.596 261.452 584.727C261.452 552.858 235.696 527.024 203.924 527.024C172.152 527.024 146.396 552.858 146.396 584.727C146.396 616.596 172.152 642.43 203.924 642.43Z" fill="white"/>
<path d="M250.918 549.323C250.164 548.31 249.384 547.335 248.566 546.373C240.154 536.531 228.744 529.743 216.099 527.06C203.455 524.377 190.281 525.948 178.617 531.531C166.952 537.114 157.447 546.397 151.572 557.944C145.697 569.491 143.78 582.658 146.116 595.408C148.453 608.159 154.914 619.781 164.499 628.477C174.083 637.174 186.258 642.459 199.14 643.516C212.021 644.573 224.891 641.343 235.757 634.325C246.624 627.307 254.882 616.892 259.253 604.692C259.922 602.852 260.494 600.977 260.966 599.076C263.097 590.556 263.3 581.666 261.561 573.057C259.823 564.449 256.186 556.339 250.918 549.323ZM203.924 641.148C194.513 641.153 185.251 638.79 176.986 634.275C168.721 629.76 161.718 623.237 156.618 615.303C151.518 607.37 148.484 598.28 147.793 588.865C147.103 579.451 148.779 570.013 152.667 561.417C156.555 552.82 162.531 545.34 170.049 539.66C177.566 533.981 186.383 530.284 195.694 528.908C205.005 527.533 214.511 528.522 223.341 531.786C232.172 535.05 240.045 540.485 246.239 547.592C247.07 548.541 247.863 549.515 248.63 550.528C254.048 557.637 257.7 565.938 259.283 574.744C260.865 583.55 260.334 592.607 257.732 601.166C257.193 602.959 256.561 604.722 255.84 606.449C251.556 616.719 244.343 625.491 235.107 631.664C225.871 637.837 215.023 641.136 203.924 641.148Z" fill="#E4E4E4"/>
<path d="M175.799 573.186H232.049C234.167 573.186 235.884 571.464 235.884 569.339C235.884 567.215 234.167 565.492 232.049 565.492H175.799C173.681 565.492 171.964 567.215 171.964 569.339C171.964 571.464 173.681 573.186 175.799 573.186Z" fill="#E4E4E4"/>
<path d="M175.799 588.574H232.049C234.167 588.574 235.884 586.851 235.884 584.727C235.884 582.602 234.167 580.88 232.049 580.88H175.799C173.681 580.88 171.964 582.602 171.964 584.727C171.964 586.851 173.681 588.574 175.799 588.574Z" fill="#E4E4E4"/>
<path d="M175.799 603.961H232.049C234.167 603.961 235.884 602.239 235.884 600.114C235.884 597.99 234.167 596.268 232.049 596.268H175.799C173.681 596.268 171.964 597.99 171.964 600.114C171.964 602.239 173.681 603.961 175.799 603.961Z" fill="#E4E4E4"/>
<path d="M275.514 235.942C307.286 235.942 333.042 210.108 333.042 178.239C333.042 146.37 307.286 120.536 275.514 120.536C243.743 120.536 217.986 146.37 217.986 178.239C217.986 210.108 243.743 235.942 275.514 235.942Z" fill="#11B984"/>
<path d="M275.514 119.254C272.557 119.254 269.604 119.477 266.68 119.92C265.185 120.138 263.728 120.42 262.283 120.767C251.67 123.22 241.945 128.584 234.194 136.258C226.443 143.932 220.97 153.616 218.386 164.228C215.802 174.841 216.209 185.965 219.56 196.359C222.912 206.753 229.077 216.009 237.367 223.094C238.351 223.927 239.348 224.735 240.384 225.505C247.847 231.086 256.525 234.81 265.704 236.37C274.883 237.93 284.299 237.282 293.179 234.478C302.059 231.675 310.148 226.796 316.781 220.244C323.414 213.692 328.401 205.653 331.332 196.79C334.262 187.927 335.052 178.492 333.637 169.263C332.222 160.034 328.643 151.273 323.193 143.703C317.743 136.132 310.579 129.968 302.29 125.718C294.001 121.467 284.824 119.252 275.514 119.254ZM275.514 234.66C263.554 234.673 251.904 230.839 242.276 223.722C241.228 222.953 240.218 222.158 239.234 221.312C231.156 214.477 225.163 205.498 221.941 195.403C218.72 185.308 218.4 174.507 221.018 164.238C223.637 153.97 229.087 144.649 236.746 137.346C244.404 130.042 253.959 125.052 264.316 122.947C265.747 122.652 267.179 122.421 268.637 122.241C270.918 121.958 273.215 121.817 275.514 121.818C290.433 121.818 304.74 127.763 315.289 138.344C325.837 148.925 331.764 163.275 331.764 178.239C331.764 193.203 325.837 207.554 315.289 218.135C304.74 228.716 290.433 234.66 275.514 234.66Z" fill="#E4E4E4"/>
<path d="M247.39 166.698H303.639C305.757 166.698 307.474 164.976 307.474 162.852C307.474 160.727 305.757 159.005 303.639 159.005H247.39C245.271 159.005 243.554 160.727 243.554 162.852C243.554 164.976 245.271 166.698 247.39 166.698Z" fill="white"/>
<path d="M247.39 182.086H303.639C305.757 182.086 307.474 180.364 307.474 178.239C307.474 176.115 305.757 174.392 303.639 174.392H247.39C245.271 174.392 243.554 176.115 243.554 178.239C243.554 180.364 245.271 182.086 247.39 182.086Z" fill="white"/>
<path d="M247.39 197.474H303.639C305.757 197.474 307.474 195.751 307.474 193.627C307.474 191.502 305.757 189.78 303.639 189.78H247.39C245.271 189.78 243.554 191.502 243.554 193.627C243.554 195.751 245.271 197.474 247.39 197.474Z" fill="white"/>
<path d="M607.004 666.222L592.259 660.895L605.727 601.311L627.49 609.173L607.004 666.222Z" fill="#FFB6B6"/>
<path d="M608.728 661.395L593.4 655.856L583.454 652.265C581.024 651.387 578.445 650.997 575.865 651.119C573.285 651.24 570.754 651.87 568.416 652.973C566.079 654.075 563.981 655.629 562.242 657.545C560.503 659.461 559.158 661.702 558.283 664.139L558.065 664.742L605.622 681.912L612.5 662.755L608.728 661.395Z" fill="#2F2E41"/>
<path d="M841.783 645.163L828.263 653.113L791.253 604.587L811.209 592.853L841.783 645.163Z" fill="#FFB6B6"/>
<path d="M842.649 638.711L839.198 640.738L825.135 649.008L816.02 654.368C813.791 655.677 811.84 657.414 810.281 659.479C808.722 661.545 807.583 663.898 806.932 666.405C806.28 668.912 806.127 671.523 806.482 674.09C806.837 676.656 807.694 679.127 809.002 681.361L809.321 681.912L852.915 656.279L842.649 638.711Z" fill="#2F2E41"/>
<path d="M696.987 161.379C714.31 161.379 728.353 147.294 728.353 129.918C728.353 112.542 714.31 98.4567 696.987 98.4567C679.665 98.4567 665.622 112.542 665.622 129.918C665.622 147.294 679.665 161.379 696.987 161.379Z" fill="#FFB6B6"/>
<path d="M709.117 172.689L702.547 174.531L679.487 191.062L654.531 220.541C654.531 220.541 645.569 237.395 648.93 256.497C652.29 275.598 659.657 315.388 659.657 315.388C659.657 315.388 720.712 314.969 722.953 311.598C725.193 308.227 725.92 292.916 725.92 292.916L734.882 192.914C734.882 192.914 724.8 176.059 719.199 176.059C715.584 175.937 712.082 174.766 709.117 172.689Z" fill="#6C63FF"/>
<path d="M724.231 310.316C724.231 310.316 712.478 310.894 704.636 313.141C696.795 315.388 657.417 313.141 657.417 313.141L636.304 397.412L595.113 634.736L627.073 641.148L683.323 469.32L711.447 523.177L799.657 620.631L823.946 605.244L751.078 489.837L734.882 401.907C734.882 401.907 749.445 352.468 729.281 322.13L724.231 310.316Z" fill="#2F2E41"/>
<path opacity="0.2" d="M701.968 230.312L690.767 313.46L679.017 314.074L701.968 230.312Z" fill="black"/>
<path d="M656.476 323.139C660.006 323.139 662.868 319.694 662.868 315.445C662.868 311.196 660.006 307.751 656.476 307.751C652.946 307.751 650.084 311.196 650.084 315.445C650.084 319.694 652.946 323.139 656.476 323.139Z" fill="#2F2E41"/>
<path d="M688.406 421.59C689.739 420.261 690.764 418.654 691.411 416.884C692.057 415.114 692.308 413.224 692.148 411.345C691.987 409.467 691.417 407.647 690.479 406.014C689.541 404.38 688.257 402.973 686.719 401.891L699.229 357.82L676.589 364.984L668.18 405.736C666.539 408.45 665.948 411.673 666.518 414.795C667.088 417.917 668.779 420.72 671.273 422.675C673.766 424.629 676.887 425.598 680.045 425.398C683.203 425.198 686.178 423.843 688.406 421.59Z" fill="#FFB6B6"/>
<path d="M713.57 178.797C713.57 178.797 728.656 172.247 737.815 188.738C746.974 205.229 733.756 262.545 731.902 271.847C730.047 281.149 689.714 398.794 689.714 398.794L667.982 391.1L713.57 178.797Z" fill="#6C63FF"/>
<path d="M735.807 78.423C737.139 80.4326 737.884 82.7756 737.958 85.1875C738.032 87.5993 737.432 89.9838 736.226 92.0717C734.907 89.7138 732.793 87.9055 730.263 86.972C727.734 86.0385 724.956 86.0412 722.428 86.9797C719.9 87.9181 717.79 89.7307 716.476 92.0911C715.162 94.4515 714.731 97.2048 715.261 99.8554C700.027 93.171 692.584 89.6888 676.743 94.7595C673.143 95.8041 669.739 97.4335 666.665 99.5828C663.375 102.089 660.812 105.43 659.239 109.262C657.666 113.093 657.141 117.276 657.717 121.379C667.349 120.635 666.753 122.456 676.385 121.711L675.941 120.684C679.797 127.765 681.531 135.813 680.932 143.859C680.334 151.905 677.43 159.606 672.57 166.035C671.153 167.613 669.942 169.364 668.966 171.248C668.489 172.198 668.27 173.257 668.331 174.319C668.392 175.381 668.731 176.408 669.314 177.297C670.255 178.341 671.476 179.089 672.832 179.452C675.792 180.453 678.923 180.841 682.037 180.594C685.151 180.347 688.183 179.47 690.949 178.015C693.715 176.56 696.159 174.558 698.132 172.13C700.106 169.701 701.568 166.897 702.431 163.886C702.207 168.899 702.46 174.885 706.695 177.556C709.128 179.091 712.203 179.014 715.075 178.886C722.627 178.549 730.179 178.212 737.731 177.875C734.885 176.217 733.788 172.52 734.125 169.236C734.463 165.951 735.939 162.915 737.145 159.842C743.842 142.779 738.766 124.711 729.345 108.995C736.532 109.314 746.84 101.284 747.611 94.1105C747.879 90.5037 746.829 86.9224 744.656 84.0355C742.484 81.1486 739.339 79.1536 735.807 78.423Z" fill="#2F2E41"/>
<path d="M929 682.127H0V685H929V682.127Z" fill="#CACACA"/>
</g>
<defs>
<clipPath id="clip0_15_2">
<rect width="929" height="685" fill="white"/>
</clipPath>
</defs>
</svg>
